<svg width="68" height="72" viewBox="0 0 68 72" fill="none" xmlns="http://www.w3.org/2000/svg">
<path d="M62.3584 0.0239182C62.3584 0.0239182 64.1876 -0.20496 65.6611 0.75341C67.1259 1.70627 67.0565 3.06824 67.0557 3.08447C67.0557 4.68591 70.6141 43.1562 43.5332 54.7222C38.7144 56.7618 33.5354 57.8143 28.3027 57.8179C22.6922 57.8936 17.155 56.5339 12.2178 53.8677C11.1544 58.9359 10.549 66.6785 10.1182 69.2417C9.68732 71.8047 3.01875 73.4195 3.00098 69.2417C2.98324 65.0638 3.69139 56.6328 5.13672 50.4868C5.3146 49.7398 5.52778 48.9926 5.74121 48.2456C3.33679 44.8825 1.63509 41.0691 0.736328 37.0337C-0.162427 32.9983 -0.239168 28.823 0.510742 24.7573C1.24798 20.5296 3.03094 16.5535 5.69727 13.1909C8.36358 9.82838 11.8282 7.18569 15.7764 5.50439C23.2241 2.1621 31.4811 1.0494 39.5479 2.30126C47.2246 3.34688 55.0399 2.56677 62.3584 0.0239182ZM60.1875 7.9956C53.2104 9.73894 45.9684 10.162 38.8359 9.24169C36.5586 9.06376 34.3879 8.85009 32.1816 8.85009C27.4852 8.82975 22.8426 9.85059 18.5879 11.8393C15.6702 13.0683 13.1131 15.0198 11.1582 17.5102C9.20345 20.0005 7.91507 22.9477 7.41406 26.0737C6.64947 30.5391 7.1173 35.1287 8.7666 39.3481C9.79502 37.0492 10.9843 34.8257 12.3252 32.6938C15.9408 27.1118 21.0094 22.6202 26.9863 19.7036C32.8318 16.9543 42.9694 15.7663 45.7041 15.8608C48.4384 15.9555 48.6836 18.9934 45.7041 19.4194C42.7243 19.8456 34.6977 22.1335 29.833 25.0425C27.4787 26.4444 25.3136 28.1422 23.3916 30.0952C21.5107 32.0276 19.8516 34.1644 18.4453 36.4653C16.6363 39.6625 15.1922 43.0532 14.1396 46.5727C20.3671 51.4482 31.4699 52.1244 40.7578 48.1743C58.1593 40.7721 59.9384 17.8178 60.1875 7.9956Z" fill="#209F2D"/>
</svg>
