<svg width="177" height="164" viewBox="0 0 177 164" fill="none" xmlns="http://www.w3.org/2000/svg">
<path d="M129.882 0.0345459C129.9 0.0323478 132.528 -0.291218 134.647 1.08728C136.773 2.47044 136.659 4.45056 136.659 4.45056C136.66 6.76513 141.793 62.2711 102.719 78.9594C95.7655 81.9025 88.2926 83.4219 80.7422 83.4271C72.6464 83.5365 64.6564 81.5741 57.5322 77.7269C55.9978 85.0402 55.1246 96.2123 54.5029 99.9105C53.881 103.609 44.2592 105.938 44.2334 99.9105C44.2078 93.8823 45.2289 81.7173 47.3145 72.849C47.5712 71.7706 47.8794 70.692 48.1875 69.6136C44.7181 64.7609 42.2617 59.2587 40.9648 53.4359C39.6681 47.6134 39.5567 41.5893 40.6387 35.723C41.7024 29.6227 44.2757 23.8846 48.123 19.0326C51.9704 14.1807 56.97 10.3678 62.667 7.94177C73.4137 3.11905 85.3279 1.51424 96.9678 3.32068C108.045 4.82941 119.322 3.70373 129.882 0.0345459ZM126.749 11.5365C116.682 14.052 106.232 14.6623 95.9404 13.3344C92.6543 13.0776 89.5223 12.7689 86.3389 12.7689C79.5622 12.7395 72.8629 14.2127 66.7236 17.0824C62.5137 18.8557 58.8247 21.6717 56.0039 25.265C53.1831 28.8585 51.3234 33.1115 50.6006 37.6224C49.4974 44.0655 50.172 50.6875 52.5518 56.7758C54.0357 53.4584 55.7516 50.2494 57.6865 47.1732C62.9036 39.1189 70.2177 32.6394 78.8418 28.431C87.2765 24.4639 101.905 22.7486 105.851 22.8851C109.796 23.0217 110.15 27.4052 105.851 28.0199C101.551 28.6347 89.9687 31.9356 82.9492 36.1332C79.5522 38.1561 76.4285 40.6071 73.6553 43.4252C70.9413 46.2134 68.5477 49.2965 66.5186 52.6166C63.9083 57.2299 61.8244 62.1222 60.3057 67.2006C69.2916 74.2352 85.3123 75.2109 98.7139 69.5111C123.823 58.8301 126.39 25.7091 126.749 11.5365Z" fill="#209F2D"/>
<path d="M4.67859 153.609H1.01463L11.6119 124.748H15.2195L25.8168 153.609H22.1528L13.5284 129.314H13.303L4.67859 153.609ZM6.03143 142.335H20.8V145.435H6.03143V142.335ZM25.3623 127.848V124.748H47.0078V127.848H37.9325V153.609H34.4376V127.848H25.3623ZM52.4016 153.609V124.748H55.8964V137.6H71.2851V124.748H74.7799V153.609H71.2851V140.7H55.8964V153.609H52.4016ZM81.7766 153.609V124.748H85.2715V150.508H98.6872V153.609H81.7766Z" fill="#0B4811"/>
<path d="M97.8602 153.609V124.748H118.66V131.061H105.695V136.022H117.589V142.335H105.695V147.295H118.604V153.609H97.8602ZM130.043 153.609H121.588L131.114 124.748H141.824L151.35 153.609H142.895L136.582 132.696H136.356L130.043 153.609ZM128.465 142.222H144.361V148.085H128.465V142.222ZM149.698 131.061V124.748H174.782V131.061H166.101V153.609H158.379V131.061H149.698Z" fill="#209F2D"/>
</svg>
